<?xml version="1.0" encoding="UTF-8"?>
<svg width="24px" height="24px" viewBox="0 0 24 24" stroke-width="1.5" fill="none" xmlns="http://www.w3.org/2000/svg" color="#4F46E5">
  <path d="M18 15.6V12.6C18 10.9399 16.6601 9.6 15 9.6H12.9M18 15.6V19.8C18 20.9201 17.1201 21.6 16.2 21.6H7.8C6.8799 21.6 6 20.9201 6 19.8V9.6C6 8.4799 6.8799 7.8 7.8 7.8H12.9M18 15.6H16.2C15.2799 15.6 14.4 14.9201 14.4 13.8V12.6C14.4 11.4799 15.2799 10.8 16.2 10.8H18C19.1201 10.8 20.4 11.4799 20.4 12.6V13.8C20.4 14.9201 19.1201 15.6 18 15.6Z" stroke="#4F46E5" stroke-width="1.5" stroke-linecap="round" stroke-linejoin="round"></path>
  <path d="M9.9 6C9.9 7.32548 8.82548 8.4 7.5 8.4C6.17452 8.4 5.1 7.32548 5.1 6C5.1 4.67452 6.17452 3.6 7.5 3.6C8.82548 3.6 9.9 4.67452 9.9 6Z" stroke="#4F46E5" stroke-width="1.5"></path>
  <path d="M14.4 4.8L18.6 4.8" stroke="#4F46E5" stroke-width="1.5" stroke-linecap="round" stroke-linejoin="round"></path>
  <path d="M16.5 2.7L16.5 6.9" stroke="#4F46E5" stroke-width="1.5" stroke-linecap="round" stroke-linejoin="round"></path>
</svg>
