<svg width="187" height="56" viewBox="0 0 187 56" fill="none" xmlns="http://www.w3.org/2000/svg">
<g clip-path="url(#clip0_1_1403)">
<path d="M8.29071 8.77094C20.8744 -3.81273 34.5733 1.53457 35.5676 2.0144C32.7059 2.3732 29.7015 3.3415 26.5545 4.915C22.1453 7.11963 18.2375 9.92081 13.8369 14.3214C9.44057 18.722 6.63508 22.6298 4.43045 27.0391C2.85695 30.1861 1.88864 33.1904 1.52985 36.0521C1.05002 35.0579 -4.29296 21.3589 8.28638 8.77526" fill="#0B3B37"/>
<path d="M18.3936 52.9067C21.2552 52.548 24.2596 51.5796 27.4066 50.0061C31.8158 47.8015 35.7237 45.0003 40.1243 40.5997C44.5206 36.2034 47.3261 32.2913 49.5307 27.8821C51.1042 24.7351 52.0725 21.7307 52.4313 18.869C52.9111 19.8633 58.2541 33.5622 45.6747 46.1459C33.0911 58.7296 19.3921 53.3823 18.3979 52.9024" fill="#0B3B37"/>
<path d="M8.66324 45.7871C11.5984 48.7223 15.0567 51.316 18.3982 52.9068C17.2483 53.0537 16.1244 53.1056 15.0178 53.0494C11.1705 52.8765 8.12289 51.6618 5.4514 48.9946C2.77991 46.3231 1.56953 43.2756 1.39661 39.4283C1.34474 38.3216 1.39661 37.1977 1.53927 36.0479C3.13438 39.3894 5.72374 42.8476 8.65892 45.7828" fill="#0B3B37"/>
<path d="M45.3033 9.13406C42.3681 6.19888 38.9099 3.60952 35.5684 2.01441C36.7182 1.86744 37.8422 1.81556 38.9488 1.87176C42.7961 2.04467 45.8437 3.25938 48.5151 5.92655C51.1866 8.59804 52.397 11.6456 52.5699 15.4929C52.6218 16.5995 52.5699 17.7235 52.4273 18.8733C50.8322 15.5318 48.2428 12.0736 45.3076 9.13839" fill="#0B3B37"/>
<path d="M111.921 4.08072C118.574 4.08072 120.969 5.42511 121.643 5.69745C120.221 2.6931 117.429 0 111.956 0C106.483 0 103.6 2.80982 102.126 6.26806C102.472 6.08218 104.577 4.0764 111.921 4.0764" fill="#0B3B37"/>
<path d="M129.351 13.4093C129.351 9.71333 124.743 6.94674 121.644 5.69745C123.126 8.81851 123.126 12.2811 123.126 13.3747L129.351 13.4093Z" fill="#0B3B37"/>
<path d="M100.444 41.7021L94.457 41.6675C94.457 42.7957 94.8677 43.8375 95.5248 44.7756C97.0248 46.911 99.8 48.5148 101.871 49.3794C101.801 49.2367 101.737 49.0897 101.676 48.9384C100.444 45.9341 100.444 42.7439 100.444 41.7021Z" fill="#0B3B37"/>
<path d="M112.631 50.9961C105.723 50.9961 102.52 49.656 101.871 49.3793C102.204 50.1056 105.494 55.0768 112.596 55.0768C117.144 55.0768 121.423 52.7987 122.988 49.8159C123.161 49.4874 123.321 49.1502 123.459 48.8087C123.126 48.9946 120.014 51.0004 112.631 51.0004" fill="#0B3B37"/>
<path d="M124.009 28.3014C122.202 27.1645 115.977 24.7783 115.977 24.7783L111.429 22.8849C109.246 21.9901 107.457 21.1385 106.065 20.3258C104.673 19.5175 103.441 18.5578 102.58 17.3215C100.864 14.8445 100.467 10.15 102.122 6.2724C100.129 7.31419 98.5515 8.66723 97.3844 10.3185C96.0141 12.2595 95.3311 14.4252 95.3311 16.8114C95.3311 19.0722 95.8887 21.0348 96.9997 22.699C98.1149 24.359 99.4982 25.7164 101.15 26.7581C102.797 27.8043 104.625 28.8677 106.761 29.6717C110.539 31.0853 120.036 33.3418 123.001 37.764C124.679 40.2626 125.115 44.9355 123.46 48.8131C125.452 47.767 127.03 46.4182 128.197 44.7669C128.599 44.2006 128.941 43.6127 129.226 43.0076C129.909 41.5421 130.255 39.9643 130.255 38.2784C130.255 36.0176 129.697 34.055 128.582 32.3951C127.467 30.7308 125.664 29.3518 124.013 28.31" fill="#0B3B37"/>
<path d="M73.3404 4.08072C79.9932 4.08072 82.388 5.42511 83.0624 5.69745C81.6402 2.6931 78.8476 0 73.375 0C67.9023 0 65.019 2.80982 63.5449 6.26806C63.8907 6.08218 65.996 4.0764 73.3404 4.0764" fill="#0B3B37"/>
<path d="M90.7701 13.4093C90.7701 9.71333 86.1619 6.94674 83.0625 5.69745C84.5452 8.81851 84.5452 12.2811 84.5452 13.3747L90.7701 13.4093Z" fill="#0B3B37"/>
<path d="M61.864 41.7021L55.877 41.6675C55.877 42.7957 56.2876 43.8375 56.9447 44.7756C58.4447 46.911 61.2199 48.5148 63.2906 49.3794C63.2214 49.2367 63.1566 49.0897 63.096 48.9384C61.864 45.9341 61.864 42.7439 61.864 41.7021Z" fill="#0B3B37"/>
<path d="M74.0495 50.9961C67.1417 50.9961 63.9385 49.656 63.29 49.3793C63.6229 50.1056 66.9125 55.0768 74.0149 55.0768C78.5625 55.0768 82.8421 52.7987 84.4069 49.8159C84.5798 49.4874 84.7398 49.1502 84.8781 48.8087C84.5452 48.9946 81.4328 51.0004 74.0495 51.0004" fill="#0B3B37"/>
<path d="M85.4275 28.3014C83.6205 27.1645 77.3957 24.7783 77.3957 24.7783L72.8481 22.8849C70.6651 21.9901 68.8755 21.1385 67.4835 20.3258C66.0916 19.5175 64.8596 18.5578 63.9993 17.3215C62.2832 14.8445 61.8855 10.15 63.5411 6.2724C61.5483 7.31419 59.9705 8.66723 58.8033 10.3185C57.433 12.2595 56.75 14.4252 56.75 16.8114C56.75 19.0722 57.3076 21.0348 58.4186 22.699C59.5339 24.359 60.9172 25.7164 62.5685 26.7581C64.2155 27.8043 66.044 28.8677 68.1795 29.6717C71.9576 31.0853 81.4548 33.3418 84.4202 37.764C86.0975 40.2626 86.5341 44.9355 84.8785 48.8131C86.8713 47.767 88.4491 46.4182 89.6162 44.7669C90.0183 44.2006 90.3598 43.6127 90.6451 43.0076C91.3281 41.5421 91.6739 39.9643 91.6739 38.2784C91.6739 36.0176 91.1163 34.055 90.001 32.3951C88.8857 30.7308 87.0831 29.3518 85.4318 28.31" fill="#0B3B37"/>
<path d="M141.33 8.77094C153.913 -3.81273 167.612 1.53457 168.607 2.0144C165.745 2.3732 162.741 3.3415 159.594 4.915C155.184 7.11963 151.277 9.92081 146.876 14.3214C142.48 18.722 139.674 22.6298 137.47 27.0391C135.896 30.1861 134.928 33.1904 134.569 36.0521C134.089 35.0579 128.746 21.3589 141.325 8.77526" fill="#0B3B37"/>
<path d="M151.432 52.9067C154.293 52.548 157.298 51.5796 160.445 50.0061C164.854 47.8015 168.762 45.0003 173.162 40.5997C177.559 36.2034 180.364 32.2913 182.569 27.8821C184.142 24.7351 185.111 21.7307 185.469 18.869C185.949 19.8633 191.292 33.5622 178.713 46.1459C166.129 58.7296 152.43 53.3823 151.436 52.9024" fill="#0B3B37"/>
<path d="M141.697 45.7871C144.633 48.7223 148.091 51.316 151.432 52.9068C150.282 53.0537 149.159 53.1056 148.052 53.0494C144.205 52.8765 141.157 51.6618 138.486 48.9946C135.814 46.3231 134.604 43.2756 134.431 39.4283C134.379 38.3216 134.431 37.1977 134.573 36.0479C136.169 39.3894 138.758 42.8476 141.693 45.7828" fill="#0B3B37"/>
<path d="M178.337 9.13406C175.402 6.19888 171.944 3.60952 168.603 2.01441C169.752 1.86744 170.876 1.81556 171.983 1.87176C175.83 2.04467 178.878 3.25938 181.549 5.92655C184.221 8.59804 185.431 11.6456 185.604 15.4929C185.656 16.5995 185.604 17.7235 185.461 18.8733C183.866 15.5318 181.277 12.0736 178.342 9.13839" fill="#0B3B37"/>
</g>
<defs>
<clipPath id="clip0_1_1403">
<rect width="187" height="55.0768" fill="white"/>
</clipPath>
</defs>
</svg>
