<?xml version="1.0" encoding="UTF-8"?>
<svg width="24px" height="24px" viewBox="0 0 24 24" stroke-width="1.5" fill="none" xmlns="http://www.w3.org/2000/svg" color="#0D9488">
  <path d="M18 18.7023C18 15.6706 14.5 15 12 15C9.5 15 6 15.6706 6 18.7023M21 12C21 16.9706 16.9706 21 12 21C7.02944 21 3 16.9706 3 12C3 7.02944 7.02944 3 12 3C16.9706 3 21 7.02944 21 12Z" stroke="#0D9488" stroke-width="1.5" stroke-linecap="round" stroke-linejoin="round"></path>
  <path d="M15 9C15 10.6569 13.6569 12 12 12C10.3431 12 9 10.6569 9 9C9 7.34315 10.3431 6 12 6C13.6569 6 15 7.34315 15 9Z" stroke="#0D9488" stroke-width="1.5" stroke-linecap="round" stroke-linejoin="round"></path>
</svg>
